<svg height="511pt" viewBox="-29 1 511 511.999" width="511pt" xmlns="http://www.w3.org/2000/svg"><path d="m249.164062 0c16.171876 0 28.8125 13.949219 27.226563 30.042969l-20.492187 207.667969c-2.796876 28.320312-26.617188 36.648437-55.078126 36.648437h-124.617187c-28.460937 0-52.28125-8.328125-55.078125-36.648437l-20.492188-207.667969c-1.585937-16.09375 11.054688-30.042969 27.226563-30.042969zm0 0" fill="#eeedee"/><path d="m249.164062 0h-64.480468c16.167968 0 28.8125 13.949219 27.222656 30.042969l-20.492188 207.667969c-2.796874 28.320312-26.613281 36.648437-55.074218 36.648437h64.480468c28.460938 0 52.28125-8.328125 55.078126-36.648437l20.492187-207.667969c1.585937-16.09375-11.054687-30.042969-27.226563-30.042969zm0 0" fill="#cccbcc"/><path d="m200.824219 274.359375c28.457031 0 52.277343-8.328125 55.074219-36.648437l18-182.421876h-270.101563l-.59375.78125 17.921875 181.640626c2.796875 28.320312 26.617188 36.648437 55.078125 36.648437zm0 0" fill="#ef2d57"/><path d="m209.414062 55.289062-18 182.421876c-2.796874 28.320312-26.613281 36.648437-55.074218 36.648437h64.480468c28.460938 0 52.28125-8.328125 55.078126-36.648437l18-182.421876zm0 0" fill="#bf2445"/><path d="m181.378906 316.609375h-85.730468c-11.941407 0-21.621094-9.675781-21.621094-21.617187v-20.632813h128.96875v20.632813c0 11.941406-9.679688 21.617187-21.617188 21.617187zm0 0" fill="#ef2d57"/><path d="m157.609375 274.359375v20.21875c0 12.167969-9.867187 22.03125-22.035156 22.03125h45.390625c12.167968 0 22.03125-9.863281 22.03125-22.03125v-20.21875zm0 0" fill="#bf2445"/><path d="m421.386719 143.128906c-5.632813 0-10.199219-4.566406-10.199219-10.199218v-59.835938c0-5.632812 4.566406-10.199219 10.199219-10.199219 5.632812 0 10.199219 4.566407 10.199219 10.199219v59.835938c0 5.632812-4.566407 10.199218-10.199219 10.199218zm0 0" fill="#868788"/><path d="m389.769531 188.683594v44.539062c0 7.507813 6.085938 13.597656 13.597657 13.597656h36.039062c7.507812 0 13.597656-6.089843 13.597656-13.597656v-107.09375c0-7.507812-6.089844-13.597656-13.597656-13.597656h-36.039062c-7.511719 0-13.597657 6.089844-13.597657 13.597656zm0 0" fill="#bdbdbd"/><path d="m439.40625 112.53125h-31.617188c7.507813 0 13.597657 6.089844 13.597657 13.597656v107.09375c0 7.511719-6.089844 13.597656-13.597657 13.597656h31.617188c7.507812 0 13.597656-6.085937 13.597656-13.597656v-107.09375c0-7.507812-6.089844-13.597656-13.597656-13.597656zm0 0" fill="#adadad"/><path d="m409.488281 246.820312v160.5625c0 46.4375-37.78125 84.21875-84.21875 84.21875h-92.339843c-46.441407 0-84.21875-37.78125-84.21875-84.21875v-90.773437h-20.398438v90.773437c0 57.6875 46.929688 104.617188 104.617188 104.617188h92.339843c57.6875 0 104.617188-46.933594 104.617188-104.617188v-160.5625zm0 0" fill="#868788"/><g fill="#3c3d3d"><path d="m274.914062 44.996094h-37.625c-5.628906 0-10.199218 4.566406-10.199218 10.199218 0 5.632813 4.566406 10.199219 10.199218 10.199219h35.613282zm0 0"/><path d="m265.839844 136.945312 2.011718-20.394531h-61.328124c-5.632813 0-10.199219 4.566407-10.199219 10.199219s4.566406 10.199219 10.199219 10.199219h59.316406zm0 0"/><path d="m271.382812 80.769531h-34.09375c-5.628906 0-10.199218 4.566407-10.199218 10.203125 0 5.632813 4.566406 10.199219 10.199218 10.199219h32.082032zm0 0"/><path d="m264.324219 152.324219h-27.03125c-5.632813 0-10.199219 4.566406-10.199219 10.199219 0 5.636718 4.566406 10.203124 10.199219 10.203124h25.019531zm0 0"/><path d="m258.78125 208.5 2.011719-20.398438h-54.269531c-5.632813 0-10.199219 4.566407-10.199219 10.203126 0 5.632812 4.566406 10.199218 10.199219 10.199218h52.257812zm0 0"/></g></svg>