<svg height="488pt" viewBox="0 -4 488 488" width="488pt" xmlns="http://www.w3.org/2000/svg"><path d="m488 136c0 75.109375-60.890625 136-136 136s-136-60.890625-136-136 60.890625-136 136-136 136 60.890625 136 136zm0 0" fill="#e90006"/><path d="m464 136c0-74.773438-55.515625-135.390625-124-135.390625s-124 60.617187-124 135.390625 55.515625 135.390625 124 135.390625 124-60.617187 124-135.390625zm0 0" fill="#ed3338"/><path d="m440 136c0 48.601562-39.398438 88-88 88s-88-39.398438-88-88 39.398438-88 88-88 88 39.398438 88 88zm0 0" fill="#b3b3b3"/><path d="m416 136c0-48.097656-34.027344-87.089844-76-87.089844s-76 38.992188-76 87.089844 34.027344 87.089844 76 87.089844 76-38.992188 76-87.089844zm0 0" fill="#ccc"/><path d="m296 136h-2.742188c-8.488281 0-16.625-3.367188-22.625-9.375l-1.945312-1.945312c-3-2.992188-4.6875-7.0625-4.6875-11.304688v-2.175781c0-14.855469 5.894531-29.09375 16.398438-39.597657l15.601562-15.601562 15.601562 15.601562c10.503907 10.503907 16.398438 24.742188 16.398438 39.597657v2.175781c0 4.242188-1.6875 8.3125-4.6875 11.3125l-1.945312 1.945312c-6 6-14.136719 9.367188-22.625 9.367188zm0 0" fill="#f478af"/><path d="m288 64-7.601562 7.601562c-10.503907 10.503907-16.398438 24.742188-16.398438 39.597657v2.175781c0 4.242188 1.6875 8.3125 4.6875 11.3125l1.945312 1.945312c4.742188 4.742188 10.839844 7.757813 17.375 8.855469 6.535157-1.089843 12.632813-4.113281 17.375-8.855469l1.945313-1.945312c2.984375-3 4.671875-7.070312 4.671875-11.3125v-2.175781c0-14.855469-5.894531-29.09375-16.398438-39.597657zm0 0" fill="#f8a5c9"/><path d="m128 64v-48h96v48zm0 0" fill="#999"/><path d="m128 16h72v48h-72zm0 0" fill="#b3b3b3"/><path d="m0 0h128v80h-128zm0 0" fill="#ccc"/><path d="m0 0h96v80h-96zm0 0" fill="#e6e6e6"/><path d="m40 304h416v-80c0-8.839844 7.160156-16 16-16s16 7.160156 16 16v256h-480v-256c0-8.839844 7.160156-16 16-16s16 7.160156 16 16zm0 0" fill="#666"/><path d="m460 213.519531c-2.457031 2.808594-4 6.449219-4 10.480469v80h-440v-80c0-4.03125-1.542969-7.671875-4-10.480469-2.457031 2.808594-4 6.449219-4 10.480469v256h456v-256c0-4.03125-1.542969-7.671875-4-10.480469zm0 0" fill="#808080"/><path d="m40 336h416v112h-416zm0 0" fill="#e6e6e6"/><path d="m104 416c-17.671875 0-32-14.328125-32-32v-48h64v48c0 17.671875-14.328125 32-32 32zm0 0" fill="#f478af"/><path d="m92 413.625c11.71875-4.753906 20-16.199219 20-29.625v-48h-40v48c0 13.425781 8.28125 24.871094 20 29.625zm0 0" fill="#f8a5c9"/><path d="m200 416c-17.671875 0-32-14.328125-32-32v-48h64v48c0 17.671875-14.328125 32-32 32zm0 0" fill="#f478af"/><path d="m188 413.625c11.71875-4.753906 20-16.199219 20-29.625v-48h-40v48c0 13.425781 8.28125 24.871094 20 29.625zm0 0" fill="#f8a5c9"/><path d="m296 416c-17.671875 0-32-14.328125-32-32v-48h64v48c0 17.671875-14.328125 32-32 32zm0 0" fill="#f478af"/><path d="m284 413.625c11.71875-4.753906 20-16.199219 20-29.625v-48h-40v48c0 13.425781 8.28125 24.871094 20 29.625zm0 0" fill="#f8a5c9"/><path d="m392 416c-17.671875 0-32-14.328125-32-32v-48h64v48c0 17.671875-14.328125 32-32 32zm0 0" fill="#f478af"/><path d="m380 413.625c11.71875-4.753906 20-16.199219 20-29.625v-48h-40v48c0 13.425781 8.28125 24.871094 20 29.625zm0 0" fill="#f8a5c9"/><path d="m360 272h64v32h-64zm0 0" fill="#f478af"/><path d="m360 272h40v32h-40zm0 0" fill="#f8a5c9"/><path d="m264 256h64v48h-64zm0 0" fill="#f478af"/><path d="m264 256h40v48h-40zm0 0" fill="#f8a5c9"/><path d="m168 224h64v80h-64zm0 0" fill="#f478af"/><path d="m168 224h40v80h-40zm0 0" fill="#f8a5c9"/><path d="m72 272h64v32h-64zm0 0" fill="#f478af"/><path d="m72 272h40v32h-40zm0 0" fill="#f8a5c9"/><path d="m360 168h64v104h-64zm0 0" fill="#ccc"/><path d="m360 168h40v104h-40zm0 0" fill="#e6e6e6"/><path d="m264 168h64v88h-64zm0 0" fill="#ccc"/><path d="m264 168h40v88h-40zm0 0" fill="#e6e6e6"/><path d="m168 168h64v56h-64zm0 0" fill="#ccc"/><path d="m168 168h40v56h-40zm0 0" fill="#e6e6e6"/><path d="m72 168h64v104h-64zm0 0" fill="#ccc"/><path d="m72 168h40v104h-40zm0 0" fill="#e6e6e6"/><path d="m224 32h64v16h-64zm0 0" fill="#4d4d4d"/></svg>