<?xml version="1.0" encoding="iso-8859-1"?>
<!-- Generator: Adobe Illustrator 19.0.0, SVG Export Plug-In . SVG Version: 6.00 Build 0)  -->
<svg version="1.1" id="Layer_1" xmlns="http://www.w3.org/2000/svg" xmlns:xlink="http://www.w3.org/1999/xlink" x="0px" y="0px"
	 viewBox="0 0 512 512" style="enable-background:new 0 0 512 512;" xml:space="preserve">
<path style="fill:#B8F4F2;" d="M253.563,109.664c0,59.641-48.799,108.163-108.782,108.163S36,169.305,36,109.664
	c0-4.142,3.377-7.5,7.543-7.5s7.543,3.358,7.543,7.5c0,51.37,42.032,93.163,93.696,93.163s93.696-41.793,93.696-93.163
	c0-4.142,3.377-7.5,7.543-7.5C250.186,102.164,253.563,105.521,253.563,109.664z"/>
<path style="fill:#B7B7B7;" d="M388.379,272.5v115.167c0,68.558-56.444,124.333-125.823,124.333s-125.823-55.775-125.823-124.333
	V322.5c0-4.142,3.377-7.5,7.543-7.5s7.543,3.358,7.543,7.5v65.167c0,60.287,49.677,109.333,110.738,109.333
	s110.738-49.046,110.738-109.333V272.5c0-4.142,3.377-7.5,7.543-7.5S388.379,268.358,388.379,272.5z M253.563,230V55
	c0-26.191-21.55-47.5-48.039-47.5c-4.166,0-7.543,3.358-7.543,7.5s3.377,7.5,7.543,7.5c18.17,0,32.953,14.58,32.953,32.5v175
	c0,17.92-14.783,32.5-32.953,32.5H84.038c-18.17,0-32.952-14.58-32.952-32.5V55c0-17.92,14.782-32.5,32.952-32.5
	c4.166,0,7.543-3.358,7.543-7.5s-3.377-7.5-7.543-7.5C57.55,7.5,36,28.808,36,55v175c0,26.191,21.55,47.5,48.038,47.5h121.486
	C232.013,277.5,253.563,256.192,253.563,230z"/>
<path style="fill:#9CDBD8;" d="M206.537,270c0,8.284-6.799,15-15.186,15h-31.384v30c0,8.284-6.799,15-15.186,15
	s-15.186-6.716-15.186-15v-30H98.212c-8.387,0-15.186-6.716-15.186-15s6.799-15,15.186-15h93.139
	C199.738,255,206.537,261.716,206.537,270z"/>
<g>
	<path style="fill:#81D3D1;" d="M206.537,270c0,8.284-6.799,15-15.186,15h-31.384v30c0,8.284-6.799,15-15.186,15
		c-0.566,0-1.123-0.036-1.673-0.096V280c0-5.523,4.477-10,10-10l0,0c6.661,0,10.524-7.538,6.634-12.945
		c-0.492-0.684-0.982-1.369-1.469-2.055h33.078C199.738,255,206.537,261.716,206.537,270z"/>
	<path style="fill:#81D3D1;" d="M130.608,15c0,8.284-6.754,15-15.086,15H95.074c-8.332,0-15.086-6.716-15.086-15S86.742,0,95.074,0
		h20.448C123.854,0,130.608,6.716,130.608,15z M196.513,0h-20.448c-8.332,0-15.086,6.716-15.086,15s6.754,15,15.086,15h20.448
		c8.332,0,15.086-6.716,15.086-15S204.845,0,196.513,0z"/>
</g>
<path style="fill:#9CDBD8;" d="M130.591,14.667H80.006C80.186,6.538,86.856,0,95.074,0h20.448
	C123.741,0,130.411,6.538,130.591,14.667z M196.513,0h-20.448c-8.218,0-14.889,6.538-15.069,14.667h50.585
	C211.402,6.538,204.732,0,196.513,0z"/>
<path style="fill:#FC7F59;" d="M268.743,356.409C205.388,298.454,86.259,169.553,149.997,92.53l0,0
	c30.509-30.04,79.975-30.04,110.485,0l43.413,42.745l43.413-42.745c30.509-30.04,79.975-30.04,110.485,0l0,0
	c63.738,77.022-55.391,205.923-118.746,263.878C329.49,365.15,316.938,370,303.895,370l0,0
	C290.851,370,278.299,365.15,268.743,356.409z"/>
<path style="fill:#F4684D;" d="M339.045,356.409C329.49,365.15,316.938,370,303.895,370c-5.128,0-10.176-0.76-15-2.201
	c7.446-2.224,14.352-6.085,20.151-11.39C372.401,298.454,491.53,169.553,427.792,92.53l0,0
	c-11.421-11.245-25.498-18.279-40.242-21.105c24.644-4.724,51.153,2.31,70.242,21.105l0,0
	C521.53,169.553,402.401,298.454,339.045,356.409z"/>
<path style="fill:#CECECE;" d="M396.021,308.333v50c0,8.284-6.799,15-15.186,15s-15.186-6.716-15.186-15v-50H396.021z"/>
<path style="fill:#DDDDDD;" d="M365.65,358.333v-50h15.813v64.969c-0.21,0.008-0.415,0.031-0.627,0.031
	C372.449,373.333,365.65,366.617,365.65,358.333z"/>
<path style="fill:#B0EAE7;" d="M379.992,200c33.082,0,59.899,26.49,59.899,59.167s-26.818,59.167-59.899,59.167
	s-59.899-26.49-59.899-59.167S346.91,200,379.992,200z"/>
<path style="fill:#81D3D1;" d="M379.992,210c27.49,0,49.776,22.013,49.776,49.167s-22.285,49.167-49.776,49.167
	c-27.49,0-49.776-22.013-49.776-49.167S352.502,210,379.992,210z"/>
<path style="fill:#DDDDDD;" d="M379.992,234.217c13.95,0,25.259,11.17,25.259,24.95s-11.309,24.95-25.259,24.95
	s-25.259-11.17-25.259-24.95S366.042,234.217,379.992,234.217z"/>
<g>
</g>
<g>
</g>
<g>
</g>
<g>
</g>
<g>
</g>
<g>
</g>
<g>
</g>
<g>
</g>
<g>
</g>
<g>
</g>
<g>
</g>
<g>
</g>
<g>
</g>
<g>
</g>
<g>
</g>
</svg>
