<?xml version="1.0" encoding="iso-8859-1"?>
<!-- Generator: Adobe Illustrator 19.0.0, SVG Export Plug-In . SVG Version: 6.00 Build 0)  -->
<svg xmlns="http://www.w3.org/2000/svg" xmlns:xlink="http://www.w3.org/1999/xlink" version="1.1" id="Layer_1" x="0px" y="0px" viewBox="0 0 512 512" style="enable-background:new 0 0 512 512;" xml:space="preserve" width="512" height="512">
<g>
	<polygon style="fill:#E0F4FF;" points="151,287 151,347 106,377 61,347 61,287 106,257  "/>
	<polygon style="fill:#BBDCFF;" points="151,287 151,347 106,377 106,257  "/>
	<path style="fill:#9ABADB;" d="M346,190.312L391,225v-57.29c0-59.18-22.837-115.005-64.307-157.222L316,0l-30,82.5l30,67.5   L346,190.312z"/>
	<path style="fill:#9ABADB;" d="M290.799,261.599L241,225v138.5c-34.2,6.899-60,37.2-60,73.5c0,45.223,40.026,81.17,87.599,74.099   c19.2-3.3,35.7-14.399,47.1-29.7l0.3,0.3V300L290.799,261.599z M271,452h-30v-30h30V452z"/>
	<path style="fill:#E0F4FF;" d="M391,363.5V225c0-41.7-33.3-75-75-75V0.095l-10.8,10.404C263.8,52.8,241,108.6,241,167.699V225   c0,41.7,33.3,75,75,75v181.7c13.801,18.3,35.4,30.3,60,30.3c41.4,0,75-33.6,75-75C451,400.699,425.2,370.399,391,363.5z M391,452   h-30v-30h30V452z"/>
	<path style="fill:#BBDCFF;" d="M391,363.5V225c0-41.7-33.3-75-75-75v331.7c13.801,18.3,35.4,30.3,60,30.3c41.4,0,75-33.6,75-75   C451,400.699,425.2,370.399,391,363.5z M391,452h-30v-30h30V452z"/>
	<rect x="301" y="210" style="fill:#BBDCFF;" width="30" height="30"/>
	<rect x="316" y="210" style="fill:#9ABADB;" width="15" height="30"/>
	<path style="fill:#BBDCFF;" d="M151,347v120c0,24.899-20.099,45-45,45s-45-20.101-45-45V347H151z"/>
	<path style="fill:#9ABADB;" d="M151,347v120c0,24.899-20.099,45-45,45V347H151z"/>
	<polygon style="fill:#BBDCFF;" points="151,225.2 151,287 61,287 61,225.2 106,195.2  "/>
	<polygon style="fill:#9ABADB;" points="151,225.2 151,287 106,287 106,195.2  "/>
	<path style="fill:#E0F4FF;" d="M151,0v225.2H61V121.5c0-37.8,16.8-72.299,45-95.099c7.2-6.301,15-11.4,23.401-15.601L151,0z"/>
	<path style="fill:#BBDCFF;" d="M151,0v225.2h-45V26.4c7.2-6.301,15-11.4,23.401-15.601L151,0z"/>
</g>















</svg>
