<?xml version="1.0" encoding="iso-8859-1"?>
<!-- Generator: Adobe Illustrator 19.0.0, SVG Export Plug-In . SVG Version: 6.00 Build 0)  -->
<svg xmlns="http://www.w3.org/2000/svg" xmlns:xlink="http://www.w3.org/1999/xlink" version="1.1" id="Layer_1" x="0px" y="0px" viewBox="0 0 512 512" style="enable-background:new 0 0 512 512;" xml:space="preserve" width="512" height="512">
<g>
	<rect x="0" y="32" style="fill:#47568C;" width="512" height="480"/>
	<rect x="256" y="32" style="fill:#2C3B73;" width="256" height="480"/>
	<polygon style="fill:#BBDCFF;" points="325.3,278.899 306.7,302.3 256,261.799 205.3,302.3 186.7,278.899 241,235.399 241,152    271,152 271,235.399  "/>
	<polygon style="fill:#9ABADB;" points="325.3,278.899 306.7,302.3 256,261.799 256,152 271,152 271,235.399  "/>
	<path style="fill:#9ED0FF;" d="M181,92H61V0h120V92z"/>
	<path style="fill:#3AAAFF;" d="M451,92H331V0h120V92z"/>
	<path style="fill:#E0F4FF;" d="M106,482c-24.814,0-45-20.186-45-45v-60c0-28.975,7.866-39.199,20.698-53.467   c2.783-3.091,5.903-6.533,9.302-10.811V287c0-57.891,47.109-105,105-105h15v195C211,434.891,163.891,482,106,482z"/>
	<path style="fill:#BBDCFF;" d="M406,482c-57.891,0-105-47.109-105-105V182h15c57.891,0,105,47.109,105,105v25.723   c3.398,4.277,6.519,7.72,9.302,10.811C443.134,337.801,451,348.025,451,377v60C451,461.814,430.814,482,406,482z"/>
</g>















</svg>
